<?xml version="1.0" encoding="utf-8"?>
<!-- Generator: Adobe Illustrator 27.5.0, SVG Export Plug-In . SVG Version: 6.00 Build 0)  -->
<svg version="1.1" xmlns="http://www.w3.org/2000/svg" xmlns:xlink="http://www.w3.org/1999/xlink" x="0px" y="0px"
	 viewBox="0 0 500 500" style="enable-background:new 0 0 500 500;" xml:space="preserve">
<g id="BACKGROUND">
	<rect style="fill:#FFFFFF;" width="500" height="500"/>
</g>
<g id="OBJECTS">
	<g>
		<linearGradient id="SVGID_1_" gradientUnits="userSpaceOnUse" x1="284.2092" y1="285.576" x2="279.8487" y2="224.8784">
			<stop  offset="0" style="stop-color:#68622E"/>
			<stop  offset="1" style="stop-color:#514D24"/>
		</linearGradient>
		<polygon style="fill:url(#SVGID_1_);" points="307.738,289.371 271.216,289.371 255.46,209.126 291.982,209.126 		"/>
		
			<linearGradient id="SVGID_00000054948828085812946960000011027890350534784910_" gradientUnits="userSpaceOnUse" x1="210.4638" y1="290.8737" x2="206.1034" y2="230.1762">
			<stop  offset="0" style="stop-color:#68622E"/>
			<stop  offset="1" style="stop-color:#514D24"/>
		</linearGradient>
		<polygon style="fill:url(#SVGID_00000054948828085812946960000011027890350534784910_);" points="243.925,289.371 
			207.809,289.371 173.374,241.866 209.489,241.866 		"/>
		
			<linearGradient id="SVGID_00000178192162728705709240000014559248174127805333_" gradientUnits="userSpaceOnUse" x1="275.379" y1="213.3946" x2="287.4413" y2="292.9592">
			<stop  offset="0" style="stop-color:#514D24"/>
			<stop  offset="0.4765" style="stop-color:#89803C"/>
			<stop  offset="1" style="stop-color:#68622E"/>
		</linearGradient>
		<polygon style="fill:url(#SVGID_00000178192162728705709240000014559248174127805333_);" points="306.169,289.371 
			271.216,289.371 255.46,209.126 290.413,209.126 		"/>
		
			<linearGradient id="SVGID_00000147926984019339039880000015048747125597665920_" gradientUnits="userSpaceOnUse" x1="191.8062" y1="255.9326" x2="226.944" y2="277.1268">
			<stop  offset="0" style="stop-color:#514D24"/>
			<stop  offset="0.4765" style="stop-color:#89803C"/>
			<stop  offset="1" style="stop-color:#68622E"/>
		</linearGradient>
		<polygon style="fill:url(#SVGID_00000147926984019339039880000015048747125597665920_);" points="242.355,289.371 
			207.809,289.371 173.374,241.866 207.919,241.866 		"/>
		<g>
			
				<text transform="matrix(1 0 0 1 110.2123 336.3732)" style="fill:#666665; font-family:'Poppins-Bold'; font-size:34.4988px; letter-spacing:4;">Accounting</text>
			
				<text transform="matrix(1 0 0 1 151.8997 356.8806)" style="fill:#919190; font-family:'Poppins-Regular'; font-size:15.6026px; letter-spacing:8;">lorem ipsum</text>
		</g>
		
			<linearGradient id="SVGID_00000065074351192871425770000018108956924301268108_" gradientUnits="userSpaceOnUse" x1="230.897" y1="282.536" x2="275.027" y2="209.299">
			<stop  offset="0" style="stop-color:#DC912D"/>
			<stop  offset="1" style="stop-color:#BD632C"/>
		</linearGradient>
		<polygon style="fill:url(#SVGID_00000065074351192871425770000018108956924301268108_);" points="244.331,289.371 
			209.927,289.371 257.578,209.126 291.982,209.126 		"/>
		
			<linearGradient id="SVGID_00000051385424810992235610000014047685323443339452_" gradientUnits="userSpaceOnUse" x1="193.2805" y1="237.1594" x2="165.1124" y2="290.3658">
			<stop  offset="0" style="stop-color:#DC912D"/>
			<stop  offset="1" style="stop-color:#E6B42E"/>
		</linearGradient>
		<polygon style="fill:url(#SVGID_00000051385424810992235610000014047685323443339452_);" points="146.907,289.371 
			181.311,289.371 209.521,241.866 175.117,241.866 		"/>
		
			<linearGradient id="SVGID_00000034770474725054309880000014029038502391270560_" gradientUnits="userSpaceOnUse" x1="355.895" y1="177.504" x2="292.3809" y2="293.4284">
			<stop  offset="0" style="stop-color:#691D23"/>
			<stop  offset="1" style="stop-color:#B22538"/>
		</linearGradient>
		<polygon style="fill:url(#SVGID_00000034770474725054309880000014029038502391270560_);" points="371.702,207.543 
			370.387,154.159 368.269,154.159 322.967,178.714 334.986,185.824 273.334,289.371 307.739,289.371 360.429,200.875 
			369.584,207.543 		"/>
		
			<linearGradient id="SVGID_00000021091625876205291170000006116847713600582324_" gradientUnits="userSpaceOnUse" x1="228.7791" y1="282.536" x2="272.9092" y2="209.299">
			<stop  offset="0" style="stop-color:#BD632C"/>
			<stop  offset="1" style="stop-color:#E7B12F"/>
		</linearGradient>
		<polygon style="fill:url(#SVGID_00000021091625876205291170000006116847713600582324_);" points="242.214,289.371 
			207.809,289.371 255.46,209.126 289.865,209.126 		"/>
		
			<linearGradient id="SVGID_00000065794312776634593390000006875802400516527490_" gradientUnits="userSpaceOnUse" x1="191.1626" y1="237.1594" x2="162.9945" y2="290.3658">
			<stop  offset="0" style="stop-color:#F5D32F"/>
			<stop  offset="1" style="stop-color:#DC912D"/>
		</linearGradient>
		<polygon style="fill:url(#SVGID_00000065794312776634593390000006875802400516527490_);" points="144.789,289.371 
			179.194,289.371 207.403,241.866 172.999,241.866 		"/>
		
			<linearGradient id="SVGID_00000038374592179347905100000005929473070168293778_" gradientUnits="userSpaceOnUse" x1="353.7771" y1="177.504" x2="290.263" y2="293.4284">
			<stop  offset="0" style="stop-color:#C12037"/>
			<stop  offset="1" style="stop-color:#691D23"/>
		</linearGradient>
		<polygon style="fill:url(#SVGID_00000038374592179347905100000005929473070168293778_);" points="369.584,207.543 
			368.269,154.159 320.849,178.714 332.868,185.824 271.216,289.371 305.621,289.371 358.311,200.875 		"/>
	</g>
</g>
</svg>
